%FSLAX44Y44*%
%MOMM*%
G71*
G01*
G75*
G04 Layer_Color=255*
%ADD10R,0.9000X0.7000*%
%ADD11O,0.3000X2.1000*%
%ADD12O,2.1000X0.3000*%
%ADD13R,0.6500X1.0500*%
%ADD14R,0.7000X1.3000*%
%ADD15R,1.3000X0.7000*%
%ADD16O,0.7000X2.5000*%
%ADD17O,2.6000X0.7000*%
%ADD18R,0.7000X0.9000*%
%ADD19R,0.9000X0.7000*%
%ADD20R,3.5052X1.6002*%
%ADD21C,0.2540*%
%ADD22C,1.7780*%
%ADD23P,1.8145X8X202.5*%
%ADD24C,3.2004*%
%ADD25P,2.0895X8X112.5*%
%ADD26P,1.9245X8X202.5*%
%ADD27P,2.0895X8X22.5*%
%ADD28C,1.2700*%
%ADD29O,4.1000X1.4500*%
D22*
X339090Y787400D02*
D03*
Y762000D02*
D03*
Y736600D02*
D03*
Y711200D02*
D03*
Y685800D02*
D03*
Y660400D02*
D03*
Y635000D02*
D03*
Y609600D02*
D03*
Y584200D02*
D03*
Y558800D02*
D03*
Y533400D02*
D03*
Y508000D02*
D03*
Y482600D02*
D03*
Y457200D02*
D03*
D23*
X450850Y361950D02*
D03*
X476250Y844550D02*
D03*
X425450Y361950D02*
D03*
X400050D02*
D03*
X374650D02*
D03*
X349250D02*
D03*
X476250D02*
D03*
X501650D02*
D03*
X527050D02*
D03*
X567690D02*
D03*
X593090D02*
D03*
X618490D02*
D03*
X643890D02*
D03*
X669290D02*
D03*
X694690D02*
D03*
X720090D02*
D03*
X745490D02*
D03*
X450850Y844550D02*
D03*
X425450D02*
D03*
X400050D02*
D03*
X374650D02*
D03*
X349250D02*
D03*
X527050D02*
D03*
X552450D02*
D03*
X577850D02*
D03*
X603250D02*
D03*
X628650D02*
D03*
X654050D02*
D03*
D24*
X831850Y361950D02*
D03*
X312850Y514350D02*
D03*
X844550Y844550D02*
D03*
D25*
X861060Y486410D02*
D03*
Y588010D02*
D03*
X833120D02*
D03*
X340360Y401320D02*
D03*
X861060Y614680D02*
D03*
X833120D02*
D03*
X614680Y798830D02*
D03*
D26*
X894080Y460210D02*
D03*
Y485610D02*
D03*
Y511010D02*
D03*
Y536410D02*
D03*
Y561810D02*
D03*
Y587210D02*
D03*
Y612610D02*
D03*
Y638010D02*
D03*
Y663410D02*
D03*
D27*
X833882Y486410D02*
D03*
X593090Y708660D02*
D03*
X784860Y741680D02*
D03*
X340360Y426720D02*
D03*
X553720Y392430D02*
D03*
X821690Y417830D02*
D03*
X585470Y798830D02*
D03*
X643890D02*
D03*
D29*
X714300Y556260D02*
D03*
Y607060D02*
D03*
X784300Y556260D02*
D03*
Y607060D02*
D03*
M02*
