%FSLAX44Y44*%
%MOMM*%
G71*
G01*
G75*
G04 Layer_Color=8388736*
%ADD10R,0.9000X0.7000*%
%ADD11O,0.3000X2.1000*%
%ADD12O,2.1000X0.3000*%
%ADD13R,0.6500X1.0500*%
%ADD14R,0.7000X1.3000*%
%ADD15R,1.3000X0.7000*%
%ADD16O,0.7000X2.5000*%
%ADD17O,2.6000X0.7000*%
%ADD18R,0.7000X0.9000*%
%ADD19R,0.9000X0.7000*%
%ADD20R,3.5052X1.6002*%
%ADD21C,0.2540*%
%ADD22C,1.7780*%
%ADD23P,1.8145X8X202.5*%
%ADD24C,3.2004*%
%ADD25P,2.0895X8X112.5*%
%ADD26P,1.9245X8X202.5*%
%ADD27P,2.0895X8X22.5*%
%ADD28C,1.2700*%
%ADD29O,4.1000X1.4500*%
%ADD30C,0.6000*%
%ADD31C,0.2500*%
%ADD32C,0.2032*%
%ADD33C,0.0127*%
%ADD34C,0.1524*%
%ADD35C,0.1270*%
%ADD36C,0.2000*%
%ADD37R,1.1032X0.9032*%
%ADD38O,0.5032X2.3032*%
%ADD39O,2.3032X0.5032*%
%ADD40R,0.8532X1.2532*%
%ADD41R,0.9032X1.5032*%
%ADD42R,1.5032X0.9032*%
%ADD43O,0.9032X2.7032*%
%ADD44O,2.8032X0.9032*%
%ADD45R,0.9032X1.1032*%
%ADD46R,1.1032X0.9032*%
%ADD47R,3.7084X1.8034*%
%ADD48C,1.9812*%
%ADD49P,2.0345X8X202.5*%
%ADD50C,3.4036*%
%ADD51P,2.3094X8X112.5*%
%ADD52P,2.1444X8X202.5*%
%ADD53P,2.3094X8X22.5*%
%ADD54C,1.4732*%
D37*
X458107Y468958D02*
D03*
Y453958D02*
D03*
Y801190D02*
D03*
Y786190D02*
D03*
Y734642D02*
D03*
Y719642D02*
D03*
Y767916D02*
D03*
Y752916D02*
D03*
Y701368D02*
D03*
Y686368D02*
D03*
Y668348D02*
D03*
Y653348D02*
D03*
Y635328D02*
D03*
Y620328D02*
D03*
X669290Y610990D02*
D03*
Y625990D02*
D03*
X956310Y746880D02*
D03*
Y761880D02*
D03*
Y715130D02*
D03*
Y730130D02*
D03*
X485140Y661790D02*
D03*
Y676790D02*
D03*
X556135Y446793D02*
D03*
Y431793D02*
D03*
X458107Y602054D02*
D03*
Y587054D02*
D03*
Y568780D02*
D03*
Y553780D02*
D03*
Y535506D02*
D03*
Y520506D02*
D03*
Y502232D02*
D03*
Y487232D02*
D03*
X647700Y509150D02*
D03*
Y494150D02*
D03*
X633730Y429380D02*
D03*
Y444380D02*
D03*
X652780Y429380D02*
D03*
Y444380D02*
D03*
X784860Y716160D02*
D03*
Y701160D02*
D03*
X689610Y779900D02*
D03*
Y794900D02*
D03*
X802640Y716160D02*
D03*
Y701160D02*
D03*
X956310Y779054D02*
D03*
Y794053D02*
D03*
Y826650D02*
D03*
Y811650D02*
D03*
X756920Y708540D02*
D03*
Y693540D02*
D03*
X778510Y793630D02*
D03*
Y778630D02*
D03*
X759460Y793630D02*
D03*
Y778630D02*
D03*
D38*
X527650Y634320D02*
D03*
X532650D02*
D03*
X537650D02*
D03*
X542650D02*
D03*
X547650D02*
D03*
X552650D02*
D03*
X557650D02*
D03*
X562650D02*
D03*
X567650D02*
D03*
X572650D02*
D03*
X577650D02*
D03*
X582650D02*
D03*
X587650D02*
D03*
X592650D02*
D03*
X597650D02*
D03*
X602650D02*
D03*
Y522320D02*
D03*
X597650D02*
D03*
X592650D02*
D03*
X587650D02*
D03*
X582650D02*
D03*
X577650D02*
D03*
X572650D02*
D03*
X567650D02*
D03*
X562650D02*
D03*
X557650D02*
D03*
X552650D02*
D03*
X547650D02*
D03*
X542650D02*
D03*
X537650D02*
D03*
X532650D02*
D03*
X527650D02*
D03*
D39*
X621150Y615820D02*
D03*
Y610820D02*
D03*
Y605820D02*
D03*
Y600820D02*
D03*
Y595820D02*
D03*
Y590820D02*
D03*
Y585820D02*
D03*
Y580820D02*
D03*
Y575820D02*
D03*
Y570820D02*
D03*
Y565820D02*
D03*
Y560820D02*
D03*
Y555820D02*
D03*
Y550820D02*
D03*
Y545820D02*
D03*
Y540820D02*
D03*
X509150D02*
D03*
Y545820D02*
D03*
Y550820D02*
D03*
Y555820D02*
D03*
Y560820D02*
D03*
Y565820D02*
D03*
Y570820D02*
D03*
Y575820D02*
D03*
Y580820D02*
D03*
Y585820D02*
D03*
Y590820D02*
D03*
Y595820D02*
D03*
Y600820D02*
D03*
Y605820D02*
D03*
Y610820D02*
D03*
Y615820D02*
D03*
D40*
X774040Y525600D02*
D03*
X764540D02*
D03*
X755040D02*
D03*
Y503100D02*
D03*
X764540D02*
D03*
X774040D02*
D03*
D41*
X655980Y688930D02*
D03*
X665480D02*
D03*
X674980D02*
D03*
Y712930D02*
D03*
X655980D02*
D03*
X733400Y798130D02*
D03*
X723900D02*
D03*
X714400D02*
D03*
Y774130D02*
D03*
X733400D02*
D03*
X730860Y714310D02*
D03*
X721360D02*
D03*
X711860D02*
D03*
Y690310D02*
D03*
X721360D02*
D03*
X730860D02*
D03*
D42*
X587440Y442570D02*
D03*
Y433070D02*
D03*
Y423570D02*
D03*
X611440D02*
D03*
Y442570D02*
D03*
D43*
X779780Y467730D02*
D03*
X767080D02*
D03*
X754380D02*
D03*
X741680D02*
D03*
X728980D02*
D03*
X716280D02*
D03*
X703580D02*
D03*
X690880D02*
D03*
X779780Y418730D02*
D03*
X767080D02*
D03*
X754380D02*
D03*
X741680D02*
D03*
X728980D02*
D03*
X716280D02*
D03*
X703580D02*
D03*
X690880D02*
D03*
D44*
X830300Y816610D02*
D03*
Y803910D02*
D03*
Y791210D02*
D03*
Y778510D02*
D03*
Y765810D02*
D03*
Y753110D02*
D03*
Y740410D02*
D03*
Y727710D02*
D03*
Y715010D02*
D03*
Y702310D02*
D03*
X922300Y816610D02*
D03*
Y803910D02*
D03*
Y791210D02*
D03*
Y778510D02*
D03*
Y765810D02*
D03*
Y753110D02*
D03*
Y740410D02*
D03*
Y727710D02*
D03*
Y715010D02*
D03*
Y702310D02*
D03*
D45*
X437192Y800772D02*
D03*
X422192D02*
D03*
X437192Y734644D02*
D03*
X422192D02*
D03*
X437192Y767708D02*
D03*
X422192D02*
D03*
X437192Y701580D02*
D03*
X422192D02*
D03*
X437192Y668516D02*
D03*
X422192D02*
D03*
X437192Y635706D02*
D03*
X422192D02*
D03*
X437192Y602896D02*
D03*
X422192D02*
D03*
X437192Y569832D02*
D03*
X422192D02*
D03*
X437192Y536768D02*
D03*
X422192D02*
D03*
X437192Y503704D02*
D03*
X422192D02*
D03*
X669170Y549910D02*
D03*
X654170D02*
D03*
X669170Y563880D02*
D03*
X654170D02*
D03*
X697350Y501650D02*
D03*
X712350D02*
D03*
X585590Y665480D02*
D03*
X600590D02*
D03*
X868560Y642620D02*
D03*
X853560D02*
D03*
X766960Y389890D02*
D03*
X751960D02*
D03*
X399600Y459108D02*
D03*
X384600D02*
D03*
X399600Y813779D02*
D03*
X384600D02*
D03*
X399600Y742845D02*
D03*
X384600D02*
D03*
X399600Y778312D02*
D03*
X384600D02*
D03*
X399600Y707378D02*
D03*
X384600D02*
D03*
X399600Y671911D02*
D03*
X384600D02*
D03*
X399600Y636697D02*
D03*
X384600D02*
D03*
Y441247D02*
D03*
X399600D02*
D03*
X384600Y796173D02*
D03*
X399600D02*
D03*
X384600Y725238D02*
D03*
X399600D02*
D03*
X384600Y760706D02*
D03*
X399600D02*
D03*
X384600Y689771D02*
D03*
X399600D02*
D03*
X384600Y654304D02*
D03*
X399600D02*
D03*
X384600Y618583D02*
D03*
X399600D02*
D03*
Y600976D02*
D03*
X384600D02*
D03*
X399600Y565509D02*
D03*
X384600D02*
D03*
X399600Y530042D02*
D03*
X384600D02*
D03*
X399600Y494575D02*
D03*
X384600D02*
D03*
Y583116D02*
D03*
X399600D02*
D03*
X384600Y547648D02*
D03*
X399600D02*
D03*
X384600Y512181D02*
D03*
X399600D02*
D03*
X384600Y476714D02*
D03*
X399600D02*
D03*
X529710Y665480D02*
D03*
X544710D02*
D03*
X358768Y760730D02*
D03*
X373768D02*
D03*
X485020Y638810D02*
D03*
X470020D02*
D03*
X553840Y742950D02*
D03*
X568840D02*
D03*
X616070Y688340D02*
D03*
X631070D02*
D03*
X616070Y708660D02*
D03*
X631070D02*
D03*
X601471Y494164D02*
D03*
X616472D02*
D03*
X572890Y494030D02*
D03*
X587890D02*
D03*
X601860Y473710D02*
D03*
X586860D02*
D03*
X616070Y665480D02*
D03*
X631070D02*
D03*
X557650D02*
D03*
X572650D02*
D03*
X868560Y666750D02*
D03*
X853560D02*
D03*
X557650Y688340D02*
D03*
X572650D02*
D03*
X713620Y665480D02*
D03*
X698620D02*
D03*
X568840Y417830D02*
D03*
X553840D02*
D03*
X675520Y751730D02*
D03*
X660520D02*
D03*
X675520Y735220D02*
D03*
X660520D02*
D03*
X718940Y744220D02*
D03*
X733940D02*
D03*
X713860Y825500D02*
D03*
X728860D02*
D03*
X437192Y470641D02*
D03*
X422192D02*
D03*
D46*
X437684Y452497D02*
D03*
X424684D02*
D03*
X437684Y782629D02*
D03*
X424684D02*
D03*
X437684Y716501D02*
D03*
X424684D02*
D03*
X437684Y749565D02*
D03*
X424684D02*
D03*
X437684Y683437D02*
D03*
X424684D02*
D03*
X437684Y650627D02*
D03*
X424684D02*
D03*
X437684Y617817D02*
D03*
X424684D02*
D03*
X437684Y584753D02*
D03*
X424684D02*
D03*
X437684Y551689D02*
D03*
X424684D02*
D03*
X437684Y518625D02*
D03*
X424684D02*
D03*
X437684Y485562D02*
D03*
X424684D02*
D03*
D47*
X538988Y471170D02*
D03*
X484810D02*
D03*
D48*
X339090Y787400D02*
D03*
Y762000D02*
D03*
Y736600D02*
D03*
Y711200D02*
D03*
Y685800D02*
D03*
Y660400D02*
D03*
Y635000D02*
D03*
Y609600D02*
D03*
Y584200D02*
D03*
Y558800D02*
D03*
Y533400D02*
D03*
Y508000D02*
D03*
Y482600D02*
D03*
Y457200D02*
D03*
D49*
X450850Y361950D02*
D03*
X476250Y844550D02*
D03*
X425450Y361950D02*
D03*
X400050D02*
D03*
X374650D02*
D03*
X349250D02*
D03*
X476250D02*
D03*
X501650D02*
D03*
X527050D02*
D03*
X567690D02*
D03*
X593090D02*
D03*
X618490D02*
D03*
X643890D02*
D03*
X669290D02*
D03*
X694690D02*
D03*
X720090D02*
D03*
X745490D02*
D03*
X450850Y844550D02*
D03*
X425450D02*
D03*
X400050D02*
D03*
X374650D02*
D03*
X349250D02*
D03*
X527050D02*
D03*
X552450D02*
D03*
X577850D02*
D03*
X603250D02*
D03*
X628650D02*
D03*
X654050D02*
D03*
D50*
X831850Y361950D02*
D03*
X312850Y514350D02*
D03*
X844550Y844550D02*
D03*
D51*
X861060Y486410D02*
D03*
Y588010D02*
D03*
X833120D02*
D03*
X340360Y401320D02*
D03*
X861060Y614680D02*
D03*
X833120D02*
D03*
X614680Y798830D02*
D03*
D52*
X894080Y460210D02*
D03*
Y485610D02*
D03*
Y511010D02*
D03*
Y536410D02*
D03*
Y561810D02*
D03*
Y587210D02*
D03*
Y612610D02*
D03*
Y638010D02*
D03*
Y663410D02*
D03*
D53*
X833882Y486410D02*
D03*
X593090Y708660D02*
D03*
X784860Y741680D02*
D03*
X340360Y426720D02*
D03*
X553720Y392430D02*
D03*
X821690Y417830D02*
D03*
X585470Y798830D02*
D03*
X643890D02*
D03*
D54*
X411480Y707390D02*
D03*
Y722630D02*
D03*
X366522Y816102D02*
D03*
X533654Y498094D02*
D03*
X542798Y554736D02*
D03*
X410464Y529844D02*
D03*
X726694Y399288D02*
D03*
X672592Y595820D02*
D03*
X640842Y620522D02*
D03*
X410464Y493522D02*
D03*
Y564896D02*
D03*
X625301Y527440D02*
D03*
X944626Y794053D02*
D03*
X577596Y454050D02*
D03*
X726440Y494030D02*
D03*
X609600Y652780D02*
D03*
X516636Y662686D02*
D03*
X488950Y729488D02*
D03*
X507746Y701368D02*
D03*
X516636Y630428D02*
D03*
X507746Y716788D02*
D03*
X489712Y620776D02*
D03*
X573564Y569214D02*
D03*
X482854Y489458D02*
D03*
X592074Y580136D02*
D03*
X911352Y625348D02*
D03*
X745236Y489712D02*
D03*
X588264Y558038D02*
D03*
X659384Y536956D02*
D03*
X661162Y458470D02*
D03*
X669798Y446024D02*
D03*
X641870Y560820D02*
D03*
X410464Y760706D02*
D03*
X411480Y671911D02*
D03*
Y624542D02*
D03*
Y584753D02*
D03*
X470916Y764106D02*
D03*
X499919Y645081D02*
D03*
X801370Y791210D02*
D03*
X681990Y548386D02*
D03*
X740410Y526796D02*
D03*
X699262Y525780D02*
D03*
X641096Y531622D02*
D03*
X700024Y574802D02*
D03*
X810006Y627634D02*
D03*
X542798Y595122D02*
D03*
X539062Y729488D02*
D03*
X766960Y351416D02*
D03*
M02*
