%FSLAX44Y44*%
%MOMM*%
G71*
G01*
G75*
G04 Layer_Color=32896*
%ADD10R,0.9000X0.7000*%
%ADD11O,0.3000X2.1000*%
%ADD12O,2.1000X0.3000*%
%ADD13R,0.6500X1.0500*%
%ADD14R,0.7000X1.3000*%
%ADD15R,1.3000X0.7000*%
%ADD16O,0.7000X2.5000*%
%ADD17O,2.6000X0.7000*%
%ADD18R,0.7000X0.9000*%
%ADD19R,0.9000X0.7000*%
%ADD20R,3.5052X1.6002*%
%ADD21C,0.2540*%
%ADD22C,1.7780*%
%ADD23P,1.8145X8X202.5*%
%ADD24C,3.2004*%
%ADD25P,2.0895X8X112.5*%
%ADD26P,1.9245X8X202.5*%
%ADD27P,2.0895X8X22.5*%
%ADD28C,1.2700*%
%ADD29O,4.1000X1.4500*%
%ADD30C,0.6000*%
%ADD31C,0.2500*%
%ADD32C,0.2032*%
%ADD33C,0.0127*%
%ADD34C,0.1524*%
%ADD35C,0.1270*%
%ADD36C,0.2000*%
%ADD37R,1.1032X0.9032*%
%ADD38O,0.5032X2.3032*%
%ADD39O,2.3032X0.5032*%
%ADD40R,0.8532X1.2532*%
%ADD41R,0.9032X1.5032*%
%ADD42R,1.5032X0.9032*%
%ADD43O,0.9032X2.7032*%
%ADD44O,2.8032X0.9032*%
%ADD45R,0.9032X1.1032*%
%ADD46R,1.1032X0.9032*%
%ADD47R,3.7084X1.8034*%
%ADD48C,1.9812*%
%ADD49P,2.0345X8X202.5*%
%ADD50C,3.4036*%
%ADD51P,2.3094X8X112.5*%
%ADD52P,2.1444X8X202.5*%
%ADD53P,2.3094X8X22.5*%
%ADD54C,1.4732*%
%ADD55O,4.3032X1.6532*%
%ADD56C,0.4000*%
G36*
X749071Y562933D02*
X749178Y562920D01*
X749272Y562907D01*
X749354Y562890D01*
X749418Y562869D01*
X749444Y562860D01*
X749466Y562856D01*
X749483Y562847D01*
X749500Y562843D01*
X749504Y562839D01*
X749509D01*
X749590Y562800D01*
X749659Y562753D01*
X749719Y562706D01*
X749766Y562658D01*
X749805Y562616D01*
X749835Y562581D01*
X749852Y562560D01*
X749856Y562555D01*
Y562551D01*
X749895Y562478D01*
X749925Y562410D01*
X749946Y562341D01*
X749959Y562281D01*
X749968Y562225D01*
X749976Y562186D01*
Y562169D01*
Y562156D01*
Y562152D01*
Y562148D01*
X749972Y562088D01*
X749964Y562027D01*
X749951Y561972D01*
X749938Y561920D01*
X749895Y561821D01*
X749848Y561740D01*
X749822Y561706D01*
X749800Y561671D01*
X749779Y561645D01*
X749758Y561624D01*
X749745Y561607D01*
X749732Y561594D01*
X749723Y561585D01*
X749719Y561581D01*
X749680Y561551D01*
X749637Y561521D01*
X749543Y561465D01*
X749436Y561418D01*
X749328Y561379D01*
X749234Y561345D01*
X749191Y561332D01*
X749152Y561323D01*
X749122Y561315D01*
X749101Y561306D01*
X749083Y561302D01*
X749079D01*
X749015Y561285D01*
X748959Y561272D01*
X748907Y561259D01*
X748860Y561246D01*
X748817Y561233D01*
X748783Y561225D01*
X748749Y561216D01*
X748723Y561208D01*
X748680Y561195D01*
X748650Y561186D01*
X748633Y561177D01*
X748628D01*
X748577Y561156D01*
X748534Y561135D01*
X748500Y561117D01*
X748470Y561096D01*
X748448Y561079D01*
X748435Y561066D01*
X748427Y561057D01*
X748422Y561053D01*
X748401Y561027D01*
X748388Y560997D01*
X748371Y560946D01*
X748367Y560920D01*
X748362Y560903D01*
Y560890D01*
Y560886D01*
X748367Y560830D01*
X748384Y560778D01*
X748405Y560731D01*
X748431Y560692D01*
X748461Y560658D01*
X748483Y560637D01*
X748500Y560620D01*
X748504Y560615D01*
X748560Y560577D01*
X748624Y560546D01*
X748693Y560529D01*
X748762Y560512D01*
X748822Y560504D01*
X748869Y560499D01*
X748916D01*
X749011Y560504D01*
X749092Y560521D01*
X749161Y560542D01*
X749221Y560564D01*
X749268Y560589D01*
X749303Y560607D01*
X749324Y560624D01*
X749333Y560628D01*
X749384Y560684D01*
X749427Y560748D01*
X749461Y560817D01*
X749487Y560881D01*
X749509Y560946D01*
X749521Y560993D01*
X749526Y561014D01*
Y561027D01*
X749530Y561036D01*
Y561040D01*
X750084Y560984D01*
X750071Y560899D01*
X750054Y560817D01*
X750032Y560740D01*
X750011Y560671D01*
X749981Y560607D01*
X749955Y560546D01*
X749925Y560495D01*
X749895Y560443D01*
X749865Y560405D01*
X749839Y560366D01*
X749813Y560336D01*
X749792Y560310D01*
X749770Y560289D01*
X749758Y560276D01*
X749749Y560267D01*
X749745Y560263D01*
X749689Y560220D01*
X749624Y560182D01*
X749560Y560152D01*
X749496Y560121D01*
X749427Y560100D01*
X749358Y560079D01*
X749225Y560048D01*
X749161Y560040D01*
X749105Y560031D01*
X749053Y560027D01*
X749011Y560023D01*
X748972Y560019D01*
X748920D01*
X748787Y560023D01*
X748671Y560036D01*
X748568Y560048D01*
X748478Y560070D01*
X748440Y560079D01*
X748405Y560087D01*
X748380Y560096D01*
X748354Y560100D01*
X748337Y560109D01*
X748324Y560113D01*
X748315Y560117D01*
X748311D01*
X748221Y560160D01*
X748148Y560212D01*
X748079Y560263D01*
X748028Y560315D01*
X747985Y560358D01*
X747955Y560396D01*
X747933Y560422D01*
X747929Y560426D01*
Y560431D01*
X747882Y560512D01*
X747847Y560594D01*
X747826Y560671D01*
X747809Y560740D01*
X747800Y560800D01*
X747792Y560847D01*
Y560864D01*
Y560877D01*
Y560886D01*
Y560890D01*
X747796Y560984D01*
X747809Y561070D01*
X747830Y561147D01*
X747847Y561212D01*
X747869Y561263D01*
X747890Y561306D01*
X747903Y561328D01*
X747907Y561336D01*
X747955Y561401D01*
X748002Y561461D01*
X748053Y561508D01*
X748105Y561551D01*
X748148Y561581D01*
X748182Y561607D01*
X748208Y561620D01*
X748212Y561624D01*
X748216D01*
X748255Y561645D01*
X748298Y561663D01*
X748397Y561701D01*
X748495Y561731D01*
X748598Y561766D01*
X748689Y561787D01*
X748727Y561800D01*
X748762Y561809D01*
X748792Y561817D01*
X748813Y561821D01*
X748826Y561826D01*
X748830D01*
X748903Y561843D01*
X748972Y561864D01*
X749032Y561881D01*
X749083Y561899D01*
X749135Y561912D01*
X749174Y561929D01*
X749212Y561942D01*
X749242Y561959D01*
X749272Y561972D01*
X749294Y561980D01*
X749328Y561997D01*
X749345Y562010D01*
X749350Y562015D01*
X749375Y562045D01*
X749397Y562070D01*
X749410Y562100D01*
X749423Y562126D01*
X749427Y562152D01*
X749431Y562169D01*
Y562182D01*
Y562186D01*
X749427Y562225D01*
X749418Y562259D01*
X749406Y562289D01*
X749388Y562315D01*
X749371Y562337D01*
X749358Y562349D01*
X749350Y562358D01*
X749345Y562362D01*
X749290Y562397D01*
X749225Y562422D01*
X749161Y562439D01*
X749101Y562452D01*
X749045Y562461D01*
X748998Y562465D01*
X748959D01*
X748873Y562461D01*
X748800Y562448D01*
X748740Y562435D01*
X748689Y562418D01*
X748650Y562397D01*
X748624Y562384D01*
X748607Y562371D01*
X748603Y562366D01*
X748560Y562328D01*
X748525Y562281D01*
X748500Y562229D01*
X748478Y562178D01*
X748461Y562130D01*
X748453Y562092D01*
X748444Y562066D01*
Y562062D01*
Y562057D01*
X747873Y562079D01*
X747877Y562148D01*
X747890Y562216D01*
X747907Y562281D01*
X747924Y562341D01*
X747972Y562444D01*
X747993Y562491D01*
X748019Y562534D01*
X748045Y562573D01*
X748071Y562607D01*
X748092Y562637D01*
X748113Y562658D01*
X748131Y562676D01*
X748143Y562688D01*
X748152Y562697D01*
X748156Y562701D01*
X748208Y562744D01*
X748268Y562779D01*
X748328Y562813D01*
X748392Y562839D01*
X748525Y562882D01*
X748654Y562907D01*
X748714Y562916D01*
X748770Y562925D01*
X748822Y562929D01*
X748869Y562933D01*
X748903Y562938D01*
X748955D01*
X749071Y562933D01*
D02*
G37*
G36*
X751874D02*
X751990Y562920D01*
X752093Y562899D01*
X752183Y562882D01*
X752221Y562869D01*
X752256Y562860D01*
X752286Y562847D01*
X752312Y562839D01*
X752333Y562834D01*
X752346Y562826D01*
X752355Y562822D01*
X752359D01*
X752432Y562787D01*
X752501Y562749D01*
X752561Y562706D01*
X752616Y562663D01*
X752659Y562628D01*
X752694Y562598D01*
X752715Y562577D01*
X752724Y562568D01*
X752779Y562504D01*
X752835Y562435D01*
X752878Y562371D01*
X752917Y562311D01*
X752947Y562259D01*
X752968Y562216D01*
X752981Y562191D01*
X752986Y562186D01*
Y562182D01*
X753028Y562066D01*
X753058Y561946D01*
X753080Y561826D01*
X753093Y561710D01*
X753101Y561658D01*
Y561611D01*
X753106Y561568D01*
X753110Y561530D01*
Y561499D01*
Y561478D01*
Y561461D01*
Y561456D01*
X753106Y561332D01*
X753093Y561216D01*
X753076Y561109D01*
X753054Y561006D01*
X753024Y560911D01*
X752994Y560826D01*
X752960Y560748D01*
X752925Y560675D01*
X752891Y560611D01*
X752857Y560555D01*
X752827Y560508D01*
X752797Y560469D01*
X752775Y560439D01*
X752758Y560418D01*
X752745Y560405D01*
X752741Y560401D01*
X752668Y560332D01*
X752591Y560276D01*
X752513Y560224D01*
X752428Y560182D01*
X752346Y560143D01*
X752264Y560113D01*
X752183Y560087D01*
X752105Y560066D01*
X752033Y560048D01*
X751964Y560040D01*
X751899Y560031D01*
X751848Y560023D01*
X751805D01*
X751771Y560019D01*
X751745D01*
X751629Y560023D01*
X751522Y560036D01*
X751423Y560053D01*
X751329Y560079D01*
X751238Y560109D01*
X751157Y560139D01*
X751084Y560173D01*
X751015Y560212D01*
X750955Y560246D01*
X750904Y560280D01*
X750856Y560310D01*
X750822Y560340D01*
X750792Y560366D01*
X750770Y560383D01*
X750758Y560396D01*
X750753Y560401D01*
X750689Y560478D01*
X750629Y560559D01*
X750582Y560645D01*
X750539Y560731D01*
X750500Y560821D01*
X750470Y560911D01*
X750444Y560997D01*
X750427Y561083D01*
X750410Y561160D01*
X750401Y561238D01*
X750393Y561302D01*
X750384Y561362D01*
Y561409D01*
X750380Y561444D01*
Y561465D01*
Y561474D01*
X750384Y561598D01*
X750397Y561718D01*
X750414Y561830D01*
X750440Y561933D01*
X750466Y562027D01*
X750496Y562113D01*
X750530Y562195D01*
X750564Y562268D01*
X750603Y562332D01*
X750633Y562388D01*
X750667Y562435D01*
X750693Y562474D01*
X750719Y562508D01*
X750736Y562530D01*
X750749Y562542D01*
X750753Y562547D01*
X750826Y562616D01*
X750904Y562676D01*
X750985Y562727D01*
X751067Y562774D01*
X751148Y562809D01*
X751234Y562843D01*
X751311Y562869D01*
X751393Y562890D01*
X751466Y562903D01*
X751535Y562916D01*
X751595Y562925D01*
X751646Y562933D01*
X751689D01*
X751723Y562938D01*
X751749D01*
X751874Y562933D01*
D02*
G37*
G36*
X743679Y562804D02*
X743731Y562719D01*
X743786Y562641D01*
X743842Y562577D01*
X743898Y562521D01*
X743941Y562482D01*
X743954Y562470D01*
X743967Y562457D01*
X743975Y562452D01*
X743980Y562448D01*
X744070Y562379D01*
X744156Y562328D01*
X744233Y562281D01*
X744302Y562246D01*
X744357Y562216D01*
X744400Y562199D01*
X744417Y562195D01*
X744430Y562191D01*
X744435Y562186D01*
X744439D01*
Y561697D01*
X744293Y561753D01*
X744160Y561817D01*
X744044Y561881D01*
X743988Y561916D01*
X743941Y561950D01*
X743894Y561980D01*
X743855Y562010D01*
X743821Y562036D01*
X743791Y562057D01*
X743769Y562079D01*
X743752Y562092D01*
X743744Y562100D01*
X743739Y562105D01*
Y560070D01*
X743198D01*
Y562899D01*
X743641D01*
X743679Y562804D01*
D02*
G37*
G36*
X746199Y562933D02*
X746302Y562920D01*
X746401Y562903D01*
X746491Y562877D01*
X746577Y562847D01*
X746654Y562813D01*
X746727Y562779D01*
X746791Y562744D01*
X746851Y562706D01*
X746903Y562671D01*
X746946Y562637D01*
X746984Y562607D01*
X747010Y562581D01*
X747032Y562564D01*
X747045Y562551D01*
X747049Y562547D01*
X747113Y562470D01*
X747169Y562388D01*
X747216Y562302D01*
X747259Y562212D01*
X747293Y562122D01*
X747319Y562027D01*
X747345Y561942D01*
X747362Y561851D01*
X747379Y561770D01*
X747392Y561697D01*
X747396Y561628D01*
X747405Y561568D01*
Y561521D01*
X747409Y561482D01*
Y561461D01*
Y561452D01*
X747405Y561332D01*
X747392Y561216D01*
X747375Y561109D01*
X747354Y561010D01*
X747324Y560916D01*
X747293Y560830D01*
X747263Y560748D01*
X747229Y560680D01*
X747195Y560615D01*
X747165Y560559D01*
X747130Y560512D01*
X747105Y560474D01*
X747083Y560443D01*
X747066Y560422D01*
X747053Y560409D01*
X747049Y560405D01*
X746980Y560336D01*
X746907Y560280D01*
X746830Y560229D01*
X746753Y560186D01*
X746675Y560147D01*
X746598Y560117D01*
X746525Y560092D01*
X746452Y560070D01*
X746384Y560053D01*
X746323Y560044D01*
X746268Y560036D01*
X746220Y560027D01*
X746182D01*
X746152Y560023D01*
X746126D01*
X746044Y560027D01*
X745963Y560031D01*
X745890Y560044D01*
X745817Y560057D01*
X745752Y560074D01*
X745692Y560092D01*
X745637Y560113D01*
X745585Y560134D01*
X745538Y560156D01*
X745495Y560177D01*
X745461Y560195D01*
X745431Y560212D01*
X745409Y560224D01*
X745392Y560237D01*
X745383Y560242D01*
X745379Y560246D01*
X745323Y560289D01*
X745276Y560340D01*
X745186Y560448D01*
X745113Y560564D01*
X745057Y560675D01*
X745031Y560727D01*
X745010Y560778D01*
X744993Y560821D01*
X744980Y560860D01*
X744967Y560894D01*
X744958Y560916D01*
X744954Y560933D01*
Y560937D01*
X745508Y561109D01*
X745538Y560997D01*
X745576Y560907D01*
X745615Y560826D01*
X745654Y560761D01*
X745688Y560714D01*
X745718Y560675D01*
X745735Y560658D01*
X745744Y560649D01*
X745808Y560602D01*
X745873Y560568D01*
X745937Y560542D01*
X746002Y560525D01*
X746053Y560516D01*
X746096Y560512D01*
X746113Y560508D01*
X746134D01*
X746190Y560512D01*
X746242Y560516D01*
X746341Y560542D01*
X746426Y560577D01*
X746499Y560620D01*
X746555Y560662D01*
X746598Y560697D01*
X746624Y560723D01*
X746628Y560727D01*
X746633Y560731D01*
X746667Y560778D01*
X746693Y560830D01*
X746718Y560886D01*
X746740Y560946D01*
X746774Y561074D01*
X746796Y561199D01*
X746804Y561259D01*
X746813Y561315D01*
X746817Y561362D01*
Y561409D01*
X746821Y561444D01*
Y561474D01*
Y561491D01*
Y561495D01*
X746817Y561585D01*
X746813Y561671D01*
X746804Y561753D01*
X746791Y561821D01*
X746778Y561890D01*
X746761Y561950D01*
X746744Y562002D01*
X746723Y562049D01*
X746705Y562092D01*
X746688Y562126D01*
X746671Y562156D01*
X746658Y562182D01*
X746645Y562199D01*
X746637Y562216D01*
X746628Y562221D01*
Y562225D01*
X746590Y562263D01*
X746551Y562302D01*
X746508Y562332D01*
X746469Y562358D01*
X746384Y562397D01*
X746302Y562422D01*
X746229Y562439D01*
X746199Y562444D01*
X746173Y562448D01*
X746152Y562452D01*
X746122D01*
X746040Y562448D01*
X745967Y562431D01*
X745898Y562414D01*
X745843Y562388D01*
X745795Y562366D01*
X745765Y562345D01*
X745744Y562328D01*
X745735Y562324D01*
X745679Y562272D01*
X745637Y562216D01*
X745598Y562160D01*
X745572Y562105D01*
X745551Y562053D01*
X745534Y562015D01*
X745529Y561989D01*
X745525Y561984D01*
Y561980D01*
X744963Y562113D01*
X745001Y562234D01*
X745049Y562337D01*
X745100Y562422D01*
X745147Y562495D01*
X745190Y562555D01*
X745225Y562594D01*
X745246Y562620D01*
X745250Y562628D01*
X745255D01*
X745319Y562684D01*
X745383Y562731D01*
X745452Y562770D01*
X745521Y562809D01*
X745589Y562839D01*
X745662Y562860D01*
X745727Y562882D01*
X745795Y562899D01*
X745855Y562912D01*
X745911Y562920D01*
X745963Y562929D01*
X746006Y562933D01*
X746040Y562938D01*
X746092D01*
X746199Y562933D01*
D02*
G37*
%LPC*%
G36*
X751779Y562452D02*
X751745D01*
X751681Y562448D01*
X751620Y562444D01*
X751509Y562414D01*
X751410Y562375D01*
X751333Y562332D01*
X751299Y562311D01*
X751268Y562289D01*
X751243Y562268D01*
X751221Y562251D01*
X751204Y562234D01*
X751191Y562221D01*
X751187Y562216D01*
X751183Y562212D01*
X751144Y562165D01*
X751110Y562113D01*
X751084Y562057D01*
X751058Y561997D01*
X751020Y561877D01*
X750994Y561761D01*
X750985Y561706D01*
X750981Y561654D01*
X750972Y561607D01*
Y561568D01*
X750968Y561534D01*
Y561508D01*
Y561491D01*
Y561487D01*
X750972Y561396D01*
X750977Y561315D01*
X750990Y561233D01*
X751002Y561165D01*
X751020Y561096D01*
X751037Y561036D01*
X751058Y560980D01*
X751075Y560933D01*
X751097Y560890D01*
X751118Y560851D01*
X751135Y560821D01*
X751153Y560795D01*
X751165Y560774D01*
X751178Y560761D01*
X751183Y560752D01*
X751187Y560748D01*
X751230Y560705D01*
X751273Y560667D01*
X751320Y560637D01*
X751367Y560607D01*
X751414Y560585D01*
X751462Y560564D01*
X751547Y560534D01*
X751625Y560516D01*
X751659Y560512D01*
X751689Y560508D01*
X751711Y560504D01*
X751745D01*
X751805Y560508D01*
X751865Y560512D01*
X751921Y560525D01*
X751977Y560542D01*
X752071Y560581D01*
X752153Y560628D01*
X752217Y560671D01*
X752243Y560692D01*
X752264Y560710D01*
X752281Y560727D01*
X752294Y560740D01*
X752299Y560744D01*
X752303Y560748D01*
X752342Y560795D01*
X752376Y560851D01*
X752406Y560907D01*
X752428Y560967D01*
X752470Y561087D01*
X752496Y561208D01*
X752505Y561263D01*
X752509Y561315D01*
X752513Y561358D01*
X752518Y561401D01*
X752522Y561431D01*
Y561456D01*
Y561474D01*
Y561478D01*
X752518Y561568D01*
X752513Y561650D01*
X752501Y561727D01*
X752488Y561800D01*
X752475Y561864D01*
X752453Y561924D01*
X752436Y561980D01*
X752415Y562027D01*
X752397Y562070D01*
X752376Y562105D01*
X752359Y562139D01*
X752346Y562165D01*
X752329Y562182D01*
X752320Y562195D01*
X752316Y562203D01*
X752312Y562208D01*
X752269Y562251D01*
X752226Y562289D01*
X752178Y562319D01*
X752131Y562349D01*
X752084Y562375D01*
X752037Y562392D01*
X751947Y562422D01*
X751869Y562439D01*
X751835Y562444D01*
X751805Y562448D01*
X751779Y562452D01*
D02*
G37*
%LPD*%
D31*
X785550Y619810D02*
G03*
X785550Y619810I-1250J0D01*
G01*
D36*
X738800Y511660D02*
X759800D01*
X738800Y651660D02*
X759800D01*
X738800Y511660D02*
Y651660D01*
X759800Y511660D02*
Y651660D01*
D56*
X753800Y643660D02*
G03*
X753800Y643660I-2000J0D01*
G01*
M02*
