%FSLAX44Y44*%
%MOMM*%
G71*
G01*
G75*
G04 Layer_Physical_Order=2*
G04 Layer_Color=16711680*
%ADD10R,0.9000X0.7000*%
%ADD11O,0.3000X2.1000*%
%ADD12O,2.1000X0.3000*%
%ADD13R,0.6500X1.0500*%
%ADD14R,0.7000X1.3000*%
%ADD15R,1.3000X0.7000*%
%ADD16O,0.7000X2.5000*%
%ADD17O,2.6000X0.7000*%
%ADD18R,0.7000X0.9000*%
%ADD19R,0.9000X0.7000*%
%ADD20R,3.5052X1.6002*%
%ADD21C,0.2540*%
%ADD22C,1.7780*%
%ADD23P,1.8145X8X202.5*%
%ADD24C,3.2004*%
%ADD25P,2.0895X8X112.5*%
%ADD26P,1.9245X8X202.5*%
%ADD27P,2.0895X8X22.5*%
%ADD28C,1.2700*%
%ADD29O,4.1000X1.4500*%
D21*
X552450Y844550D02*
X577850D01*
X833120Y614680D02*
X861060D01*
X876300D01*
X878370Y612610D01*
X894080D01*
X861060Y486410D02*
X877062D01*
X877862Y485610D01*
X894080D01*
X364490Y660400D02*
X411480Y707390D01*
X339090Y660400D02*
X364490D01*
X387858Y699008D02*
X411480Y722630D01*
X342900Y699008D02*
X387858D01*
X339090Y695198D02*
X342900Y699008D01*
X339090Y685800D02*
Y695198D01*
X326898Y748792D02*
X339090Y736600D01*
X326898Y748792D02*
Y798830D01*
X344170Y816102D01*
X366522D01*
X747776Y778764D02*
X784860Y741680D01*
X347726Y778764D02*
X747776D01*
X339090Y787400D02*
X347726Y778764D01*
X909525Y758952D02*
X944626Y794053D01*
X807212Y758952D02*
X909525D01*
X781050Y785114D02*
X807212Y758952D01*
X628396Y785114D02*
X781050D01*
X614680Y798830D02*
X628396Y785114D01*
X492760Y457200D02*
X533654Y498094D01*
X339090Y457200D02*
X492760D01*
X533654Y498094D02*
X542798Y507238D01*
Y554736D01*
X406908Y533400D02*
X410464Y529844D01*
X339090Y533400D02*
X406908D01*
X655828Y399288D02*
X726694D01*
X618490Y361950D02*
X655828Y399288D01*
X784300Y556260D02*
X827278D01*
X846074Y575056D01*
Y595630D01*
X839978Y601726D02*
X846074Y595630D01*
X822960Y601726D02*
X839978D01*
X820166Y604520D02*
X822960Y601726D01*
X820166Y604520D02*
Y633984D01*
X824192Y638010D01*
X894080D01*
X672592Y595820D02*
X771144D01*
Y607060D02*
X784300D01*
X640842Y620522D02*
X654304Y607060D01*
X395986Y508000D02*
X410464Y493522D01*
X339090Y508000D02*
X395986D01*
X404368Y558800D02*
X410464Y564896D01*
X339090Y558800D02*
X404368D01*
X747048Y556260D02*
X784300D01*
X701727Y510940D02*
X747048Y556260D01*
X553720Y463550D02*
X601110Y510940D01*
X553720Y392430D02*
Y455859D01*
X944626Y638048D02*
Y794053D01*
X906272Y599694D02*
X944626Y638048D01*
X885952Y599694D02*
X906272D01*
X877380Y591122D02*
X885952Y599694D01*
X877380Y572834D02*
Y591122D01*
X822198Y517652D02*
X877380Y572834D01*
X750813Y517652D02*
X822198D01*
X738689Y505528D02*
X750813Y517652D01*
X629074Y505528D02*
X738689D01*
X577596Y454050D02*
X629074Y505528D01*
X726440Y494030D02*
X740590Y479880D01*
X754380D01*
X760910Y486410D01*
X833882D01*
X720090Y361950D02*
X775970Y417830D01*
X821690D01*
X551688Y652780D02*
X609600D01*
X533146Y585470D02*
Y634238D01*
X538480Y580136D02*
X592074D01*
X488950Y690372D02*
X516636Y662686D01*
X488950Y690372D02*
Y729488D01*
X507746Y701368D02*
X526256Y682858D01*
Y652589D02*
Y682858D01*
X521208Y647541D02*
X526256Y652589D01*
X521208Y635000D02*
Y647541D01*
X516636Y630428D02*
X521208Y635000D01*
X507746Y716788D02*
X530796Y693738D01*
Y648049D02*
Y693738D01*
X526288Y643541D02*
X530796Y648049D01*
X526288Y626110D02*
Y643541D01*
X520954Y620776D02*
X526288Y626110D01*
X489712Y620776D02*
X520954D01*
X538480Y569214D02*
X573564D01*
X528320Y559054D02*
X538480Y569214D01*
X528320Y534924D02*
Y559054D01*
X482854Y489458D02*
X528320Y534924D01*
X533146Y585470D02*
X538480Y580136D01*
X533146Y640842D02*
X542544Y650240D01*
X904240D02*
X911352Y643128D01*
Y625348D02*
Y643128D01*
X881920Y575050D02*
X894080Y587210D01*
X881920Y550450D02*
Y575050D01*
X838454Y506984D02*
X881920Y550450D01*
X762508Y506984D02*
X838454D01*
X745236Y489712D02*
X762508Y506984D01*
X588264Y558038D02*
X602234Y544068D01*
X652272D01*
X659384Y536956D01*
X894080Y561810D02*
X906272Y549618D01*
X899160Y446024D02*
X906272Y453136D01*
X661162Y454660D02*
X669798Y446024D01*
X661162Y454660D02*
Y458470D01*
X906272Y453136D02*
Y549618D01*
X669798Y446024D02*
X899160D01*
X641870Y560820D02*
X650316D01*
X672370Y538766D01*
X689006D01*
X695070Y544830D01*
Y556260D02*
X714300D01*
X339090Y711200D02*
X360958D01*
X410464Y760706D01*
X339090Y635000D02*
X390398D01*
X401828Y646430D01*
Y656082D01*
X411480Y665734D01*
Y671911D01*
X396538Y609600D02*
X411480Y624542D01*
X339090Y609600D02*
X396538D01*
X410927Y584200D02*
X411480Y584753D01*
X339090Y584200D02*
X410927D01*
X470916Y674084D02*
Y764106D01*
Y674084D02*
X499919Y645081D01*
X776224Y816356D02*
X801370Y791210D01*
X606044Y816356D02*
X776224D01*
X577850Y844550D02*
X606044Y816356D01*
X660400Y569976D02*
X681990Y548386D01*
X660400Y569976D02*
X661924Y607060D01*
X740410Y526796D02*
X820928D01*
X861060Y566928D01*
Y588010D01*
X646938Y525780D02*
X699262D01*
X641096Y531622D02*
X646938Y525780D01*
X885152Y469138D02*
X894080Y460210D01*
X656336Y469138D02*
X885152D01*
X566674Y379476D02*
X656336Y469138D01*
X543560Y379476D02*
X566674D01*
X536956Y386080D02*
X543560Y379476D01*
X536956Y386080D02*
Y474726D01*
X601218Y538988D01*
X633730D01*
X641096Y531622D01*
X700024Y574802D02*
X713232Y588010D01*
X833120D01*
X807498Y630142D02*
X810006Y627634D01*
X577818Y630142D02*
X807498D01*
X542798Y595122D02*
X577818Y630142D01*
X539062Y729488D02*
X605140Y663410D01*
X894080D01*
X567690Y361950D02*
X579374Y350266D01*
X765810D01*
X766960Y351416D01*
X533146Y634238D02*
Y640842D01*
X542544Y650240D02*
X549148D01*
X904240D01*
X533146Y634238D02*
X549148Y650240D01*
X551688Y652780D01*
X695070Y544830D02*
Y556260D01*
X771144Y595820D02*
Y607060D01*
X654304D02*
X661924D01*
X714300D01*
X553720Y455859D02*
Y463550D01*
Y455859D02*
X608801Y510940D01*
X625301Y527440D01*
X601110Y510940D02*
X608801D01*
X701727D01*
D22*
X339090Y787400D02*
D03*
Y762000D02*
D03*
Y736600D02*
D03*
Y711200D02*
D03*
Y685800D02*
D03*
Y660400D02*
D03*
Y635000D02*
D03*
Y609600D02*
D03*
Y584200D02*
D03*
Y558800D02*
D03*
Y533400D02*
D03*
Y508000D02*
D03*
Y482600D02*
D03*
Y457200D02*
D03*
D23*
X450850Y361950D02*
D03*
X476250Y844550D02*
D03*
X425450Y361950D02*
D03*
X400050D02*
D03*
X374650D02*
D03*
X349250D02*
D03*
X476250D02*
D03*
X501650D02*
D03*
X527050D02*
D03*
X567690D02*
D03*
X593090D02*
D03*
X618490D02*
D03*
X643890D02*
D03*
X669290D02*
D03*
X694690D02*
D03*
X720090D02*
D03*
X745490D02*
D03*
X450850Y844550D02*
D03*
X425450D02*
D03*
X400050D02*
D03*
X374650D02*
D03*
X349250D02*
D03*
X527050D02*
D03*
X552450D02*
D03*
X577850D02*
D03*
X603250D02*
D03*
X628650D02*
D03*
X654050D02*
D03*
D24*
X831850Y361950D02*
D03*
X312850Y514350D02*
D03*
X844550Y844550D02*
D03*
D25*
X861060Y486410D02*
D03*
Y588010D02*
D03*
X833120D02*
D03*
X340360Y401320D02*
D03*
X861060Y614680D02*
D03*
X833120D02*
D03*
X614680Y798830D02*
D03*
D26*
X894080Y460210D02*
D03*
Y485610D02*
D03*
Y511010D02*
D03*
Y536410D02*
D03*
Y561810D02*
D03*
Y587210D02*
D03*
Y612610D02*
D03*
Y638010D02*
D03*
Y663410D02*
D03*
D27*
X833882Y486410D02*
D03*
X593090Y708660D02*
D03*
X784860Y741680D02*
D03*
X340360Y426720D02*
D03*
X553720Y392430D02*
D03*
X821690Y417830D02*
D03*
X585470Y798830D02*
D03*
X643890D02*
D03*
D28*
X411480Y707390D02*
D03*
Y722630D02*
D03*
X366522Y816102D02*
D03*
X533654Y498094D02*
D03*
X542798Y554736D02*
D03*
X410464Y529844D02*
D03*
X726694Y399288D02*
D03*
X672592Y595820D02*
D03*
X640842Y620522D02*
D03*
X410464Y493522D02*
D03*
Y564896D02*
D03*
X625301Y527440D02*
D03*
X944626Y794053D02*
D03*
X577596Y454050D02*
D03*
X726440Y494030D02*
D03*
X609600Y652780D02*
D03*
X516636Y662686D02*
D03*
X488950Y729488D02*
D03*
X507746Y701368D02*
D03*
X516636Y630428D02*
D03*
X507746Y716788D02*
D03*
X489712Y620776D02*
D03*
X573564Y569214D02*
D03*
X482854Y489458D02*
D03*
X592074Y580136D02*
D03*
X911352Y625348D02*
D03*
X745236Y489712D02*
D03*
X588264Y558038D02*
D03*
X659384Y536956D02*
D03*
X661162Y458470D02*
D03*
X669798Y446024D02*
D03*
X641870Y560820D02*
D03*
X410464Y760706D02*
D03*
X411480Y671911D02*
D03*
Y624542D02*
D03*
Y584753D02*
D03*
X470916Y764106D02*
D03*
X499919Y645081D02*
D03*
X801370Y791210D02*
D03*
X681990Y548386D02*
D03*
X740410Y526796D02*
D03*
X699262Y525780D02*
D03*
X641096Y531622D02*
D03*
X700024Y574802D02*
D03*
X810006Y627634D02*
D03*
X542798Y595122D02*
D03*
X539062Y729488D02*
D03*
X766960Y351416D02*
D03*
D29*
X714300Y556260D02*
D03*
Y607060D02*
D03*
X784300Y556260D02*
D03*
Y607060D02*
D03*
M02*
