%FSLAX44Y44*%
%MOMM*%
G71*
G01*
G75*
G04 Layer_Color=16711935*
%ADD10R,0.9000X0.7000*%
%ADD11O,0.3000X2.1000*%
%ADD12O,2.1000X0.3000*%
%ADD13R,0.6500X1.0500*%
%ADD14R,0.7000X1.3000*%
%ADD15R,1.3000X0.7000*%
%ADD16O,0.7000X2.5000*%
%ADD17O,2.6000X0.7000*%
%ADD18R,0.7000X0.9000*%
%ADD19R,0.9000X0.7000*%
%ADD20R,3.5052X1.6002*%
%ADD21C,0.2540*%
%ADD22C,1.7780*%
%ADD23P,1.8145X8X202.5*%
%ADD24C,3.2004*%
%ADD25P,2.0895X8X112.5*%
%ADD26P,1.9245X8X202.5*%
%ADD27P,2.0895X8X22.5*%
%ADD28C,1.2700*%
%ADD29O,4.1000X1.4500*%
%ADD30C,0.6000*%
%ADD31C,0.2500*%
%ADD32C,0.2032*%
%ADD33C,0.0127*%
%ADD34C,0.1524*%
%ADD35C,0.1270*%
%ADD36C,0.2000*%
%ADD37R,1.1032X0.9032*%
%ADD38O,0.5032X2.3032*%
%ADD39O,2.3032X0.5032*%
%ADD40R,0.8532X1.2532*%
%ADD41R,0.9032X1.5032*%
%ADD42R,1.5032X0.9032*%
%ADD43O,0.9032X2.7032*%
%ADD44O,2.8032X0.9032*%
%ADD45R,0.9032X1.1032*%
%ADD46R,1.1032X0.9032*%
%ADD47R,3.7084X1.8034*%
%ADD48C,1.9812*%
%ADD49P,2.0345X8X202.5*%
%ADD50C,3.4036*%
%ADD51P,2.3094X8X112.5*%
%ADD52P,2.1444X8X202.5*%
%ADD53P,2.3094X8X22.5*%
%ADD54C,1.4732*%
%ADD55O,4.3032X1.6532*%
D48*
X339090Y787400D02*
D03*
Y762000D02*
D03*
Y736600D02*
D03*
Y711200D02*
D03*
Y685800D02*
D03*
Y660400D02*
D03*
Y635000D02*
D03*
Y609600D02*
D03*
Y584200D02*
D03*
Y558800D02*
D03*
Y533400D02*
D03*
Y508000D02*
D03*
Y482600D02*
D03*
Y457200D02*
D03*
D49*
X450850Y361950D02*
D03*
X476250Y844550D02*
D03*
X425450Y361950D02*
D03*
X400050D02*
D03*
X374650D02*
D03*
X349250D02*
D03*
X476250D02*
D03*
X501650D02*
D03*
X527050D02*
D03*
X567690D02*
D03*
X593090D02*
D03*
X618490D02*
D03*
X643890D02*
D03*
X669290D02*
D03*
X694690D02*
D03*
X720090D02*
D03*
X745490D02*
D03*
X450850Y844550D02*
D03*
X425450D02*
D03*
X400050D02*
D03*
X374650D02*
D03*
X349250D02*
D03*
X527050D02*
D03*
X552450D02*
D03*
X577850D02*
D03*
X603250D02*
D03*
X628650D02*
D03*
X654050D02*
D03*
D50*
X831850Y361950D02*
D03*
X312850Y514350D02*
D03*
X844550Y844550D02*
D03*
D51*
X861060Y486410D02*
D03*
Y588010D02*
D03*
X833120D02*
D03*
X340360Y401320D02*
D03*
X861060Y614680D02*
D03*
X833120D02*
D03*
X614680Y798830D02*
D03*
D52*
X894080Y460210D02*
D03*
Y485610D02*
D03*
Y511010D02*
D03*
Y536410D02*
D03*
Y561810D02*
D03*
Y587210D02*
D03*
Y612610D02*
D03*
Y638010D02*
D03*
Y663410D02*
D03*
D53*
X833882Y486410D02*
D03*
X593090Y708660D02*
D03*
X784860Y741680D02*
D03*
X340360Y426720D02*
D03*
X553720Y392430D02*
D03*
X821690Y417830D02*
D03*
X585470Y798830D02*
D03*
X643890D02*
D03*
D54*
X411480Y707390D02*
D03*
Y722630D02*
D03*
X366522Y816102D02*
D03*
X533654Y498094D02*
D03*
X542798Y554736D02*
D03*
X410464Y529844D02*
D03*
X726694Y399288D02*
D03*
X672592Y595820D02*
D03*
X640842Y620522D02*
D03*
X410464Y493522D02*
D03*
Y564896D02*
D03*
X625301Y527440D02*
D03*
X944626Y794053D02*
D03*
X577596Y454050D02*
D03*
X726440Y494030D02*
D03*
X609600Y652780D02*
D03*
X516636Y662686D02*
D03*
X488950Y729488D02*
D03*
X507746Y701368D02*
D03*
X516636Y630428D02*
D03*
X507746Y716788D02*
D03*
X489712Y620776D02*
D03*
X573564Y569214D02*
D03*
X482854Y489458D02*
D03*
X592074Y580136D02*
D03*
X911352Y625348D02*
D03*
X745236Y489712D02*
D03*
X588264Y558038D02*
D03*
X659384Y536956D02*
D03*
X661162Y458470D02*
D03*
X669798Y446024D02*
D03*
X641870Y560820D02*
D03*
X410464Y760706D02*
D03*
X411480Y671911D02*
D03*
Y624542D02*
D03*
Y584753D02*
D03*
X470916Y764106D02*
D03*
X499919Y645081D02*
D03*
X801370Y791210D02*
D03*
X681990Y548386D02*
D03*
X740410Y526796D02*
D03*
X699262Y525780D02*
D03*
X641096Y531622D02*
D03*
X700024Y574802D02*
D03*
X810006Y627634D02*
D03*
X542798Y595122D02*
D03*
X539062Y729488D02*
D03*
X766960Y351416D02*
D03*
D55*
X714300Y556260D02*
D03*
Y607060D02*
D03*
X784300Y556260D02*
D03*
Y607060D02*
D03*
M02*
